<svg width="184" height="22" viewBox="0 0 184 22" fill="none" xmlns="http://www.w3.org/2000/svg">
<g clip-path="url(#clip0_929_2666)">
<path fill-rule="evenodd" clip-rule="evenodd" d="M179.854 4.14648H166.896V7.25634H181.408L177.262 11.4028H166.896V14.5127H183.482L179.335 18.6592H161.713V0H184L179.854 4.14648ZM142.017 4.14648V14.5127H152.383V11.4028H148.755L144.608 7.25634H158.085V14.5127L153.938 18.6592H140.98L136.315 13.9944V4.14648L140.462 0H158.603L154.456 4.14648H142.017ZM115.065 7.77465V18.6592L109.882 21.769V0H114.028L127.504 10.8845V0H132.687V18.6592H128.541L115.065 7.77465ZM106.254 12.9577L102.107 18.6592H87.076L82.9296 14.5127H98.9972L100.552 12.9577L98.9972 11.4028H87.076L82.9296 7.25634H98.9972L100.552 5.70141L98.9972 4.14648H87.076L82.9296 0H102.625L106.772 5.70141L103.662 8.81127L106.254 12.9577ZM64.7887 18.6592L54.4225 0H60.1239L67.3803 12.4394L74.1183 0H79.8197L69.9718 18.6592H64.7887ZM50.7944 12.9577L46.6479 18.6592H31.6169L27.4704 14.5127H43.538L45.093 12.9577L43.538 11.4028H31.6169L27.4704 7.25634H43.538L45.093 5.70141L43.538 4.14648H31.6169L27.4704 0H47.1662L51.3127 5.70141L48.2028 8.81127L50.7944 12.9577ZM18.1408 13.4761L16.5859 11.9211H5.70141V18.6592L0 21.769V0H19.6958L23.8423 5.70141L20.2141 9.84789L23.8423 13.4761V18.6592H18.1408V13.4761ZM16.0676 3.62817H5.70141V7.77465H16.0676L18.1408 5.70141L16.0676 3.62817Z" fill="white"/>
</g>
<defs>
<clipPath id="clip0_929_2666">
<rect width="184" height="21.769" fill="white"/>
</clipPath>
</defs>
</svg>
